<svg width="48" height="48" xmlns="http://www.w3.org/2000/svg">
  <!-- Corpo - ciano gélido -->
  <polygon points="24,6 38,18 38,30 24,42 10,30 10,18" fill="#00FFFF" stroke="#00CCCC" stroke-width="2"/>
  
  <!-- Cristais internos -->
  <polygon points="24,14 32,22 32,30 24,36 16,30 16,22" fill="#66FFFF" opacity="0.7"/>
  <polygon points="24,18 28,24 28,28 24,32 20,28 20,24" fill="#CCFFFF" opacity="0.8"/>
  
  <!-- Olhos -->
  <circle cx="20" cy="24" r="3" fill="#FFFFFF"/>
  <circle cx="28" cy="24" r="3" fill="#FFFFFF"/>
  <circle cx="20" cy="24" r="1.5" fill="#0066CC"/>
  <circle cx="28" cy="24" r="1.5" fill="#0066CC"/>
  
  <!-- Efeito gelo -->
  <line x1="24" y1="10" x2="24" y2="14" stroke="#FFFFFF" stroke-width="1" opacity="0.7"/>
  <line x1="34" y1="20" x2="30" y2="22" stroke="#FFFFFF" stroke-width="1" opacity="0.7"/>
  <line x1="34" y1="28" x2="30" y2="26" stroke="#FFFFFF" stroke-width="1" opacity="0.7"/>
</svg>
